<svg xmlns="http://www.w3.org/2000/svg" width="1024" height="1024" viewBox="0 0 1024 1024">
  <defs>
    <linearGradient id="cyanBlue" x1="18%" y1="14%" x2="84%" y2="88%">
      <stop offset="0" stop-color="#20d9d2"/>
      <stop offset="0.52" stop-color="#1d75ff"/>
      <stop offset="1" stop-color="#6757ff"/>
    </linearGradient>
    <radialGradient id="halo" cx="48%" cy="44%" r="52%">
      <stop offset="0" stop-color="#20d9d2" stop-opacity="0.26"/>
      <stop offset="0.45" stop-color="#1d75ff" stop-opacity="0.16"/>
      <stop offset="1" stop-color="#1d75ff" stop-opacity="0"/>
    </radialGradient>
    <filter id="tileShadow" x="-20%" y="-20%" width="140%" height="145%">
      <feDropShadow dx="0" dy="22" stdDeviation="24" flood-color="#000000" flood-opacity="0.22"/>
    </filter>
    <filter id="markGlow" x="-25%" y="-25%" width="150%" height="150%">
      <feDropShadow dx="0" dy="3" stdDeviation="9" flood-color="#1d75ff" flood-opacity="0.34"/>
    </filter>
  </defs>

  <rect width="1024" height="1024" fill="none"/>
  <g filter="url(#tileShadow)">
    <rect x="76" y="76" width="872" height="872" rx="210" fill="#f7fafc"/>
    <rect x="92" y="92" width="840" height="840" rx="196" fill="none" stroke="#dde7ef" stroke-opacity="0.8" stroke-width="3"/>
  </g>

  <circle cx="520" cy="512" r="350" fill="url(#halo)"/>

  <g fill="none" stroke-linecap="round" stroke-linejoin="round" filter="url(#markGlow)">
    <path d="M202 394V330C202 289 235 256 276 256H748C789 256 822 289 822 330V448" stroke="#20d9d2" stroke-width="32"/>
    <path d="M202 552V664C202 705 235 738 276 738H748C789 738 822 705 822 664V606" stroke="#6757ff" stroke-width="32"/>
  </g>

  <g>
    <circle cx="327" cy="650" r="35" fill="#20d9d2" opacity="0.9"/>
    <circle cx="327" cy="512" r="35" fill="#1d75ff" opacity="0.9"/>
    <circle cx="327" cy="374" r="35" fill="#6757ff" opacity="0.9"/>
    <rect x="438" y="632" width="142" height="36" rx="18" fill="#20d9d2" opacity="0.76"/>
    <rect x="438" y="494" width="142" height="36" rx="18" fill="#1d75ff" opacity="0.76"/>
    <rect x="438" y="356" width="142" height="36" rx="18" fill="#6757ff" opacity="0.76"/>
  </g>

  <g filter="url(#markGlow)">
    <rect x="620" y="388" width="170" height="236" rx="42" fill="#1d75ff" opacity="0.14"/>
    <path d="M662 414V598L776 506Z" fill="#1d75ff" stroke="#0d5af5" stroke-opacity="0.72" stroke-width="5" stroke-linejoin="round"/>
  </g>
</svg>
