<svg xmlns="http://www.w3.org/2000/svg" width="1024" height="1024" viewBox="0 0 1024 1024">
  <defs>
    <radialGradient id="bg" cx="28%" cy="15%" r="92%">
      <stop offset="0" stop-color="#304763"/>
      <stop offset="0.45" stop-color="#101b2b"/>
      <stop offset="1" stop-color="#050914"/>
    </radialGradient>
    <radialGradient id="halo" cx="50%" cy="48%" r="48%">
      <stop offset="0" stop-color="#39eaff" stop-opacity="0.55"/>
      <stop offset="0.36" stop-color="#0a8cff" stop-opacity="0.28"/>
      <stop offset="1" stop-color="#0a8cff" stop-opacity="0"/>
    </radialGradient>
    <linearGradient id="rim" x1="18%" y1="0" x2="86%" y2="100%">
      <stop offset="0" stop-color="#7ea4c7"/>
      <stop offset="0.32" stop-color="#243d5f"/>
      <stop offset="1" stop-color="#050a13"/>
    </linearGradient>
    <linearGradient id="mark" x1="19%" y1="9%" x2="84%" y2="91%">
      <stop offset="0" stop-color="#66fff1"/>
      <stop offset="0.46" stop-color="#12c7ff"/>
      <stop offset="1" stop-color="#0968ff"/>
    </linearGradient>
    <linearGradient id="plate" x1="16%" y1="0" x2="86%" y2="100%">
      <stop offset="0" stop-color="#283a51"/>
      <stop offset="0.55" stop-color="#101a2a"/>
      <stop offset="1" stop-color="#080d18"/>
    </linearGradient>
    <linearGradient id="glass" x1="20%" y1="0" x2="86%" y2="100%">
      <stop offset="0" stop-color="#ffffff" stop-opacity="0.36"/>
      <stop offset="0.28" stop-color="#ffffff" stop-opacity="0.1"/>
      <stop offset="1" stop-color="#ffffff" stop-opacity="0"/>
    </linearGradient>
    <filter id="shadow" x="-18%" y="-18%" width="136%" height="142%">
      <feDropShadow dx="0" dy="34" stdDeviation="28" flood-color="#00040b" flood-opacity="0.62"/>
      <feDropShadow dx="0" dy="0" stdDeviation="16" flood-color="#0aaeff" flood-opacity="0.18"/>
    </filter>
    <filter id="glow" x="-45%" y="-45%" width="190%" height="190%">
      <feDropShadow dx="0" dy="0" stdDeviation="18" flood-color="#20d9ff" flood-opacity="0.58"/>
      <feDropShadow dx="0" dy="8" stdDeviation="8" flood-color="#004cff" flood-opacity="0.34"/>
    </filter>
    <clipPath id="squircle">
      <rect x="76" y="76" width="872" height="872" rx="210"/>
    </clipPath>
  </defs>

  <rect width="1024" height="1024" fill="none"/>
  <g filter="url(#shadow)">
    <rect x="76" y="76" width="872" height="872" rx="210" fill="url(#bg)"/>
    <g clip-path="url(#squircle)">
      <circle cx="512" cy="500" r="410" fill="url(#halo)"/>
      <path d="M128 210c92-74 211-112 357-112h221c96 0 168 36 216 94v-116H76v872h872V756c-58 76-143 116-253 116H424c-154 0-272-37-354-110z" fill="#020611" opacity="0.22"/>
      <path d="M118 112h808v286c-88-74-217-110-389-110-194 0-334-59-419-176Z" fill="url(#glass)" opacity="0.5"/>
    </g>
    <rect x="80" y="80" width="864" height="864" rx="206" fill="none" stroke="url(#rim)" stroke-width="8"/>
    <rect x="94" y="94" width="836" height="836" rx="194" fill="none" stroke="#020814" stroke-width="12" opacity="0.72"/>

    <rect x="276" y="278" width="472" height="420" rx="84" fill="url(#plate)" stroke="#4d6f91" stroke-width="7"/>
    <path d="M320 314h384c39 0 70 31 70 70v26H250v-26c0-39 31-70 70-70Z" fill="#415776" opacity="0.28"/>
    <path d="M320 278h384c24 0 45 10 60 25H260c15-15 36-25 60-25Z" fill="#a9c5df" opacity="0.18"/>

    <g filter="url(#glow)">
      <path d="M386 402 512 512 386 622" fill="none" stroke="url(#mark)" stroke-width="66" stroke-linecap="round" stroke-linejoin="round"/>
      <path d="M590 614h108" fill="none" stroke="url(#mark)" stroke-width="44" stroke-linecap="round"/>
    </g>
    <path d="M386 402 512 512 386 622" fill="none" stroke="#d8fffb" stroke-width="10" stroke-linecap="round" stroke-linejoin="round" opacity="0.35"/>
    <path d="M590 614h108" fill="none" stroke="#d8fffb" stroke-width="7" stroke-linecap="round" opacity="0.28"/>

    <circle cx="512" cy="758" r="92" fill="#060a15" stroke="url(#mark)" stroke-width="34" filter="url(#glow)"/>
    <circle cx="512" cy="758" r="58" fill="#080b17"/>
  </g>
</svg>
